<?xml version="1.0" encoding="utf-8"?>
<!-- Generator: Adobe Illustrator 24.1.2, SVG Export Plug-In . SVG Version: 6.00 Build 0)  -->
<svg version="1.1" id="Слой_1" xmlns="http://www.w3.org/2000/svg" xmlns:xlink="http://www.w3.org/1999/xlink" x="0px" y="0px"
	 viewBox="0 0 63 63" style="enable-background:new 0 0 63 63;" xml:space="preserve">
<style type="text/css">
	.st0{fill:#3F51B5;}
</style>
<path class="st0" d="M13.1,13.1h5.3v5.3h-5.3V13.1z M23.6,23.6h-5.3v-5.3h5.3V23.6z M28.9,28.9h-5.3v-5.3h5.3V28.9z M34.1,28.9h-5.3
	v5.3h-5.3v5.3h-5.3v5.3h-5.3v5.3h5.3v-5.3h5.3v-5.3h5.3v-5.3h5.3v5.3h5.3v5.3h5.3v5.3h5.3v-5.3h-5.3v-5.3h-5.3v-5.3h-5.3V28.9z
	 M39.4,23.6v5.3h-5.3v-5.3H39.4z M44.6,18.4v5.3h-5.3v-5.3H44.6z M44.6,18.4v-5.3h5.3v5.3H44.6z"/>
</svg>
